<?xml version="1.0" encoding="UTF-8"?>
<svg xmlns="http://www.w3.org/2000/svg" xmlns:xlink="http://www.w3.org/1999/xlink" width="42px" height="42px" viewBox="0 0 40 40" version="1.1">
<g id="surface1">
<path style=" stroke:none;fill-rule:nonzero;fill:rgb(99%,71%,25%);fill-opacity:1;" d="M 20 16.25 C 20.691406 16.25 21.25 16.808594 21.25 17.5 L 21.25 21.25 L 25 21.25 C 25.691406 21.25 26.25 21.808594 26.25 22.5 C 26.25 23.191406 25.691406 23.75 25 23.75 L 21.25 23.75 L 21.25 27.5 C 21.25 28.191406 20.691406 28.75 20 28.75 C 19.308594 28.75 18.75 28.191406 18.75 27.5 L 18.75 23.75 L 15 23.75 C 14.308594 23.75 13.75 23.191406 13.75 22.5 C 13.75 21.808594 14.308594 21.25 15 21.25 L 18.75 21.25 L 18.75 17.5 C 18.75 16.808594 19.308594 16.25 20 16.25 "/>
<path style=" stroke:none;fill-rule:nonzero;fill:rgb(255%,255%,255%);fill-opacity:1;" d="M 35 11.25 L 35 35 C 35 37.761719 32.761719 40 30 40 L 10 40 C 7.238281 40 5 37.761719 5 35 L 5 5 C 5 2.238281 7.238281 0 10 0 L 23.75 0 Z M 27.5 11.25 C 25.429688 11.25 23.75 9.570312 23.75 7.5 L 23.75 2.5 L 10 2.5 C 8.621094 2.5 7.5 3.621094 7.5 5 L 7.5 35 C 7.5 36.378906 8.621094 37.5 10 37.5 L 30 37.5 C 31.378906 37.5 32.5 36.378906 32.5 35 L 32.5 11.25 Z M 27.5 11.25 "/>
</g>
</svg>
